<svg xmlns="http://www.w3.org/2000/svg" xmlns:svg="http://www.w3.org/2000/svg" id="svg4" width="16" height="16" version="1.1" viewBox="0 0 16 16"><metadata id="metadata10"/><path id="path2" d="M 9,0 C 6.58,0 4.46,1.72 4,4 1.8,4 0,5.8 0,8 0,8.74 0.22,9.42 0.56,10 H 1 l 3,-3 3,3 h 2 l 3,-3 3,3 h 0.82 C 15.94,9.68 16,9.36 16,9 16,7.7 15.16,6.42 14,6 V 5 C 14,2.24 11.76,0 9,0 Z" style="stroke-width:2"/><path id="path883-3" d="m 4,10 -4,4 h 3.2 v 1.200001 c 0,1.066665 1.6,1.066665 1.6,0 V 14 H 8 Z" style="stroke-width:1.60000002"/><path id="path883-3-3" d="m 12,10 -4,4 h 3.2 v 1.200001 c 0,1.066665 1.6,1.066665 1.6,0 V 14 H 16 Z" style="stroke-width:1.60000002"/></svg>